<?xml version="1.0" standalone="no"?>
<!DOCTYPE svg PUBLIC "-//W3C//DTD SVG 20010904//EN"
 "http://www.w3.org/TR/2001/REC-SVG-20010904/DTD/svg10.dtd">
<svg version="1.0" xmlns="http://www.w3.org/2000/svg"
 width="512.000000pt" height="512.000000pt" viewBox="0 0 512.000000 512.000000"
 preserveAspectRatio="xMidYMid meet">

<g transform="translate(0.000000,512.000000) scale(0.100000,-0.100000)"
fill="#000000" stroke="none">
<path d="M2970 4425 c-242 -50 -447 -210 -551 -430 -73 -156 -72 -147 -76
-670 -5 -582 3 -649 100 -843 l35 -69 -65 -64 c-114 -113 -207 -272 -254 -437
-30 -105 -40 -244 -37 -507 l3 -250 805 -3 805 -2 35 -68 c22 -42 60 -93 105
-137 106 -106 216 -157 375 -173 64 -6 75 -10 78 -27 2 -11 13 -30 25 -43 20
-21 27 -22 189 -22 166 0 169 0 193 25 14 13 25 33 25 45 0 13 7 20 20 20 35
0 79 29 96 62 14 27 16 51 10 146 -7 125 -21 172 -61 198 l-27 18 7 100 c8
126 9 127 45 148 26 15 30 23 30 61 0 45 -29 97 -53 97 -7 0 -25 24 -40 54
-16 30 -39 58 -53 65 -32 14 -358 15 -385 1 -10 -6 -30 -32 -43 -58 -14 -26
-40 -59 -59 -74 -56 -43 -57 -125 -3 -149 22 -10 25 -20 31 -78 3 -36 8 -87
11 -113 6 -48 6 -48 -24 -48 -38 0 -91 36 -116 80 -19 32 -22 57 -27 290 -6
220 -9 266 -28 335 -45 163 -130 312 -251 439 l-68 71 19 35 c34 63 79 190 97
268 15 67 17 140 17 557 0 519 -1 535 -56 673 -117 296 -413 495 -731 491 -46
0 -112 -7 -148 -14z m203 -42 c-23 -2 -64 -2 -90 0 -26 2 -7 3 42 3 50 0 71
-1 48 -3z m-166 -9 c-3 -3 -12 -4 -19 -1 -8 3 -5 6 6 6 11 1 17 -2 13 -5z
m260 0 c-3 -3 -12 -4 -19 -1 -8 3 -5 6 6 6 11 1 17 -2 13 -5z m-310 -10 c-3
-3 -12 -4 -19 -1 -8 3 -5 6 6 6 11 1 17 -2 13 -5z m-132 -47 c-26 -17 -75 -38
-75 -32 0 6 72 44 85 45 5 0 1 -6 -10 -13z m641 -13 c18 -14 18 -14 -6 -3 -31
14 -36 19 -24 19 6 0 19 -7 30 -16z m-788 -81 c-34 -32 -85 -80 -112 -108 -29
-30 -41 -38 -28 -20 32 47 181 185 199 185 2 0 -24 -26 -59 -57z m883 20 c13
-16 12 -17 -3 -4 -17 13 -22 21 -14 21 2 0 10 -8 17 -17z m141 -138 c24 -35
23 -34 -62 60 -60 65 -60 66 -11 20 29 -27 62 -63 73 -80z m-629 -42 c-13 -2
-33 -2 -45 0 -13 2 -3 4 22 4 25 0 35 -2 23 -4z m145 0 c-10 -2 -28 -2 -40 0
-13 2 -5 4 17 4 22 1 32 -1 23 -4z m-270 -22 c-158 -51 -257 -161 -314 -351
-13 -41 -23 -67 -23 -57 -1 34 49 168 83 220 72 112 201 203 291 205 11 1 -6
-7 -37 -17z m329 13 c-3 -3 -12 -4 -19 -1 -8 3 -5 6 6 6 11 1 17 -2 13 -5z
m53 -14 c18 -12 2 -12 -25 0 -13 6 -15 9 -5 9 8 0 22 -4 30 -9z m-842 -37
c-14 -33 -38 -71 -38 -60 0 11 39 87 45 87 3 0 -1 -12 -7 -27z m924 -4 c82
-53 170 -167 192 -249 4 -14 -9 7 -28 45 -44 90 -95 148 -170 197 -32 21 -55
38 -51 38 5 0 30 -14 57 -31z m-249 14 c-24 -2 -62 -2 -85 0 -24 2 -5 4 42 4
47 0 66 -2 43 -4z m-140 -10 c-7 -2 -19 -2 -25 0 -7 3 -2 5 12 5 14 0 19 -2
13 -5z m252 -3 c25 -11 -1 -11 -35 0 -20 6 -21 8 -5 8 11 0 29 -3 40 -8z
m-324 -15 c-18 -8 -36 -15 -40 -15 -13 1 45 29 59 29 8 0 0 -6 -19 -14z m419
-27 l55 -31 -34 -14 c-18 -8 -47 -16 -65 -18 -30 -5 -30 -5 4 6 19 6 41 17 49
24 11 11 6 17 -35 39 -27 14 -44 25 -39 25 6 1 35 -13 65 -31z m-174 7 c12 -8
27 -28 34 -44 8 -20 20 -31 38 -34 24 -4 23 -4 -5 -6 -23 -1 -33 4 -33 13 0 8
-12 29 -27 46 -19 23 -32 31 -49 27 -13 -2 -21 0 -18 4 8 14 37 11 60 -6z
m-321 -15 c-3 -5 -12 -10 -18 -10 -7 0 -6 4 3 10 19 12 23 12 15 0z m265 -15
c7 -9 8 -15 2 -15 -5 0 -12 7 -16 15 -3 8 -4 15 -2 15 2 0 9 -7 16 -15z m-233
-1 c-3 -3 -12 -4 -19 -1 -8 3 -5 6 6 6 11 1 17 -2 13 -5z m-466 -31 c-12 -20
-14 -14 -5 12 4 9 9 14 11 11 3 -2 0 -13 -6 -23z m523 8 c32 -21 66 -68 66
-91 -1 -8 -7 -1 -14 15 -14 31 -46 64 -81 83 -11 6 -15 11 -10 12 6 0 23 -9
39 -19z m214 -16 c-3 -3 -9 2 -12 12 -6 14 -5 15 5 6 7 -7 10 -15 7 -18z
m-240 -34 c39 -27 49 -61 34 -115 -17 -63 3 -86 71 -86 85 0 152 49 183 135 8
22 20 32 45 38 19 5 67 18 107 30 54 15 78 18 90 11 26 -17 89 -141 106 -211
19 -75 31 -191 46 -471 13 -227 16 -213 -62 -298 -131 -142 -366 -213 -561
-170 -118 26 -208 77 -299 166 l-78 77 0 54 c1 139 31 544 46 610 20 93 75
211 112 239 35 29 114 24 160 -9z m-511 -3 c-3 -8 -6 -5 -6 6 -1 11 2 17 5 13
3 -3 4 -12 1 -19z m749 -67 c-22 -42 -78 -82 -126 -88 -41 -6 -45 -2 -29 32 8
18 9 18 5 -4 -4 -22 -2 -23 30 -18 69 11 122 70 126 139 l1 33 4 -32 c2 -17
-3 -45 -11 -62z m661 17 c-3 -8 -6 -5 -6 6 -1 11 2 17 5 13 3 -3 4 -12 1 -19z
m-1430 -45 c-3 -10 -5 -4 -5 12 0 17 2 24 5 18 2 -7 2 -21 0 -30z m630 5 c-3
-8 -6 -5 -6 6 -1 11 2 17 5 13 3 -3 4 -12 1 -19z m810 -20 c-3 -7 -5 -2 -5 12
0 14 2 19 5 13 2 -7 2 -19 0 -25z m-1450 -691 c-1 -122 -2 -22 -2 223 0 245 1
345 2 222 2 -122 2 -322 0 -445z m1241 563 c0 -14 -6 0 -13 30 -8 30 -14 60
-14 65 2 20 27 -71 27 -95z m219 -532 c-1 -112 -2 -23 -2 197 0 220 1 311 2
203 2 -108 2 -288 0 -400z m-1250 485 c-3 -10 -5 -4 -5 12 0 17 2 24 5 18 2
-7 2 -21 0 -30z m1040 -30 c-3 -10 -5 -2 -5 17 0 19 2 27 5 18 2 -10 2 -26 0
-35z m-1050 -95 c-2 -18 -4 -4 -4 32 0 36 2 50 4 33 2 -18 2 -48 0 -65z m1060
-45 c-2 -21 -4 -4 -4 37 0 41 2 58 4 38 2 -21 2 -55 0 -75z m-1070 -130 c-2
-21 -4 -4 -4 37 0 41 2 58 4 38 2 -21 2 -55 0 -75z m1080 -45 c-2 -18 -4 -4
-4 32 0 36 2 50 4 33 2 -18 2 -48 0 -65z m-1090 -115 c-2 -21 -4 -6 -4 32 0
39 2 55 4 38 2 -18 2 -50 0 -70z m1100 -50 c-2 -21 -4 -6 -4 32 0 39 2 55 4
38 2 -18 2 -50 0 -70z m-1110 -160 c-2 -27 -3 -5 -3 47 0 52 1 74 3 48 2 -27
2 -69 0 -95z m1120 -211 c-1 -53 -3 -7 -3 103 0 110 2 154 3 97 2 -57 2 -147
0 -200z m-876 53 l70 -37 -3 -45 -3 -45 -80 -29 c-44 -15 -81 -26 -83 -24 -4
3 93 41 133 51 22 5 25 12 25 48 0 40 -1 42 -64 74 -35 18 -91 58 -125 88
l-60 55 -4 -133 -3 -133 -2 143 -2 144 65 -60 c36 -33 97 -76 136 -97z m827
33 l-2 -123 -3 113 -4 114 -42 -39 c-51 -47 -153 -117 -184 -127 -19 -6 -23
-15 -23 -51 0 -25 5 -45 13 -48 7 -3 5 -6 -5 -6 -15 -1 -18 8 -18 49 0 49 0
50 48 74 62 31 169 112 189 142 8 13 19 24 24 24 5 0 8 -55 7 -122z m209 5
c-3 -10 -5 -4 -5 12 0 17 2 24 5 18 2 -7 2 -21 0 -30z m-1440 -15 c-3 -8 -6
-5 -6 6 -1 11 2 17 5 13 3 -3 4 -12 1 -19z m1430 -40 c-3 -8 -6 -5 -6 6 -1 11
2 17 5 13 3 -3 4 -12 1 -19z m-786 -59 c71 -10 175 -3 247 17 22 6 22 6 22
-105 l0 -111 -37 -24 c-91 -58 -216 -62 -301 -9 l-47 29 -3 113 -3 114 23 -7
c13 -3 57 -11 99 -17z m-484 -66 c-2 -16 -4 -3 -4 27 0 30 2 43 4 28 2 -16 2
-40 0 -55z m1057 -41 c-4 -10 -6 -23 -5 -29 1 -7 -2 -13 -6 -13 -12 1 -119 59
-110 60 4 0 26 -9 48 -21 49 -25 68 -14 70 40 2 31 3 32 6 8 3 -16 1 -36 -3
-45z m-159 33 c39 -17 21 -18 -25 0 -19 7 -28 14 -20 14 8 0 29 -6 45 -14z
m-838 -32 c-3 -10 -5 -4 -5 12 0 17 2 24 5 18 2 -7 2 -21 0 -30z m1050 -20
c-3 -10 -5 -2 -5 17 0 19 2 27 5 18 2 -10 2 -26 0 -35z m-1197 -8 c0 -5 -5 -3
-10 5 -5 8 -10 20 -10 25 0 6 5 3 10 -5 5 -8 10 -19 10 -25z m97 -2 c-3 -10
-5 -4 -5 12 0 17 2 24 5 18 2 -7 2 -21 0 -30z m337 -108 c65 -49 125 -69 211
-69 65 0 90 4 135 25 30 15 67 38 83 52 23 22 27 34 27 81 l0 55 68 -23 c89
-31 162 -67 162 -81 0 -24 -90 -193 -135 -255 -27 -36 -99 -115 -161 -177 -66
-65 -126 -135 -144 -167 -18 -31 -33 -56 -35 -56 -2 0 -16 21 -31 48 -15 26
-84 106 -154 177 -69 72 -145 158 -168 192 -44 64 -122 218 -122 238 0 13 118
71 184 90 l41 12 3 -58 c3 -53 6 -61 36 -84z m-252 109 c-13 -9 -26 -13 -30
-9 -8 8 17 25 38 25 9 0 6 -6 -8 -16z m1088 -46 c-23 -35 -23 -31 -1 15 8 15
16 25 19 22 2 -2 -5 -19 -18 -37z m-83 10 c-3 -8 -6 -5 -6 6 -1 11 2 17 5 13
3 -3 4 -12 1 -19z m-1080 -10 c-3 -8 -6 -5 -6 6 -1 11 2 17 5 13 3 -3 4 -12 1
-19z m-67 -28 c6 -11 8 -20 6 -20 -3 0 -10 9 -16 20 -6 11 -8 20 -6 20 3 0 10
-9 16 -20z m1105 -82 c-14 -34 -29 -69 -32 -75 -14 -32 17 -7 62 52 28 36 51
65 53 65 16 0 -130 -175 -158 -190 -16 -8 -13 1 14 46 19 31 45 84 57 116 12
32 24 57 26 54 3 -2 -7 -33 -22 -68z m-1039 -12 c69 -86 86 -104 79 -81 -8 27
6 10 35 -40 l23 -40 -42 40 c-41 39 -129 144 -146 175 -10 20 1 7 51 -54z m44
9 c0 -5 -5 -3 -10 5 -5 8 -10 20 -10 25 0 6 5 3 10 -5 5 -8 10 -19 10 -25z
m-92 -38 c36 -52 160 -172 224 -219 130 -93 238 -197 291 -280 33 -52 17 -42
-20 12 -45 66 -157 177 -235 231 -93 64 -181 143 -238 214 l-54 65 -54 -52
c-107 -105 -197 -259 -241 -413 -11 -39 -20 -62 -20 -52 -3 60 89 264 164 366
50 67 138 161 152 161 4 0 18 -15 31 -33z m1283 -46 c41 -43 96 -115 123 -159
55 -92 112 -250 121 -332 4 -45 2 -40 -14 30 -40 180 -119 333 -239 460 l-67
71 -64 -73 c-70 -80 -149 -151 -227 -203 -90 -60 -227 -203 -262 -274 -18 -35
-32 -58 -32 -50 0 60 169 250 303 341 70 48 199 168 242 227 17 22 33 41 36
41 4 0 40 -35 80 -79z m-1634 -508 c-3 -10 -5 -4 -5 12 0 17 2 24 5 18 2 -7 2
-21 0 -30z m902 -33 c0 -10 -3 -8 -9 5 -12 27 -12 43 0 25 5 -8 9 -22 9 -30z
m-545 12 c3 -5 -5 -8 -17 -8 l-22 1 -3 -277 c-2 -277 -2 -278 -24 -278 -20 0
-20 1 -5 18 15 16 17 50 17 269 0 138 3 258 6 267 6 17 39 22 48 8z m1200 0
c3 -5 -5 -8 -17 -8 -22 1 -22 0 -27 -229 l-6 -230 -2 222 c-1 122 1 228 4 237
6 17 39 22 48 8z m-1567 -424 c-1 -79 -3 -15 -3 142 0 157 2 221 3 143 2 -79
2 -207 0 -285z m980 365 c-3 -10 -5 -4 -5 12 0 17 2 24 5 18 2 -7 2 -21 0 -30z
m-60 -376 c-1 -73 -3 -10 -3 138 0 149 2 208 3 132 2 -76 2 -198 0 -270z m996
-52 c4 -11 1 -6 -7 10 -12 24 -15 72 -14 235 l2 205 6 -215 c3 -118 9 -224 13
-235z m612 409 c14 -6 45 -53 45 -69 0 -3 -95 -5 -210 -5 l-211 0 16 30 c8 16
23 34 32 39 19 11 301 15 328 5z m120 -140 c9 -9 15 -26 13 -38 -3 -21 -6 -21
-295 -24 l-293 -2 0 28 c0 51 4 52 291 52 234 0 270 -2 284 -16z m-60 -191
c-12 -149 -13 -153 -46 -153 -22 0 -40 11 -67 39 -106 112 -286 16 -252 -135
5 -20 17 -46 28 -57 14 -15 22 -43 27 -92 9 -83 33 -135 77 -167 28 -20 44
-23 106 -21 51 1 72 -2 72 -11 0 -31 -25 -36 -166 -36 -153 0 -174 6 -174 54
0 12 -11 154 -25 316 -14 162 -25 305 -25 317 l0 23 226 0 226 0 -7 -77z
m-1008 -75 c-2 -13 -4 -5 -4 17 -1 22 1 32 4 23 2 -10 2 -28 0 -40z m-50 -25
c-3 -10 -5 -4 -5 12 0 17 2 24 5 18 2 -7 2 -21 0 -30z m60 -25 c-3 -8 -6 -5
-6 6 -1 11 2 17 5 13 3 -3 4 -12 1 -19z m435 -58 c24 -11 37 -20 30 -20 -33 0
-106 49 -124 85 -6 11 4 5 21 -13 17 -18 50 -42 73 -52z m405 45 l28 -24 -35
-1 c-44 0 -96 -31 -118 -70 -21 -36 -30 -38 -38 -5 -24 94 90 164 163 100z
m-890 -7 c-3 -8 -6 -5 -6 6 -1 11 2 17 5 13 3 -3 4 -12 1 -19z m176 -204 c29
-32 79 -75 111 -96 33 -21 55 -38 51 -38 -5 0 -29 14 -55 30 -88 57 -195 186
-214 260 -4 14 7 -3 24 -37 17 -34 54 -88 83 -119z m390 139 c-7 -2 -19 -2
-25 0 -7 3 -2 5 12 5 14 0 19 -2 13 -5z m521 -15 c24 -22 25 -29 28 -146 3
-118 2 -125 -20 -142 -25 -21 -149 -36 -209 -27 -21 4 -48 18 -62 31 -22 22
-25 36 -29 116 -5 99 6 143 42 163 11 7 64 15 116 18 52 3 98 6 102 7 4 1 18
-8 32 -20z m-507 -65 c-2 -16 -4 -5 -4 22 0 28 2 40 4 28 2 -13 2 -35 0 -50z
m10 -120 c-2 -16 -4 -5 -4 22 0 28 2 40 4 28 2 -13 2 -35 0 -50z m13 -88 c0
-29 -4 -35 -22 -35 -20 0 -20 1 -5 18 10 10 17 26 17 35 0 9 2 17 5 17 3 0 5
-16 5 -35z m-220 5 c8 -5 11 -10 5 -10 -5 0 -17 5 -25 10 -8 5 -10 10 -5 10 6
0 17 -5 25 -10z m77 -26 c-3 -3 -12 -4 -19 -1 -8 3 -5 6 6 6 11 1 17 -2 13 -5z
m71 -11 c-10 -2 -28 -2 -40 0 -13 2 -5 4 17 4 22 1 32 -1 23 -4z"/>
<path d="M2814 3484 c-48 -24 -80 -94 -42 -94 5 0 23 14 38 30 20 21 37 30 60
30 23 0 40 -9 60 -30 15 -16 33 -30 38 -30 39 0 8 70 -42 94 -42 20 -72 20
-112 0z"/>
<path d="M3324 3486 c-32 -14 -64 -51 -64 -74 0 -27 30 -24 56 7 35 42 81 43
121 1 34 -36 53 -38 53 -7 0 27 -33 61 -73 76 -36 14 -55 13 -93 -3z"/>
<path d="M2914 3055 c-8 -21 7 -37 67 -70 68 -37 164 -45 239 -20 60 20 122
69 113 91 -7 20 -13 18 -77 -20 -30 -18 -73 -36 -95 -40 -56 -9 -133 10 -180
45 -46 33 -59 36 -67 14z"/>
<path d="M4395 2394 c-38 -41 -41 -81 -11 -156 30 -73 33 -116 11 -157 -13
-26 -13 -30 1 -42 14 -11 19 -10 35 9 31 39 35 105 9 170 -35 89 -36 114 -6
149 14 17 26 36 26 42 0 21 -41 11 -65 -15z"/>
<path d="M4625 2174 c-38 -41 -41 -81 -11 -156 29 -72 32 -105 14 -155 -10
-26 -9 -36 1 -45 19 -19 48 22 57 78 5 35 1 58 -16 102 -35 90 -36 117 -6 147
14 14 26 32 26 40 0 24 -39 17 -65 -11z"/>
<path d="M292 2009 c-22 -7 -38 -20 -49 -43 -15 -33 -14 -37 130 -487 80 -250
149 -475 152 -500 9 -60 35 -103 77 -126 31 -17 84 -18 893 -18 955 0 896 -4
946 66 24 35 31 101 11 121 -10 10 -77 14 -265 16 l-252 3 -150 465 c-113 353
-155 470 -173 487 l-24 22 -631 2 c-381 1 -645 -2 -665 -8z m1154 -57 c1 -7 0
-8 -3 -2 -3 7 -195 10 -574 10 -521 0 -570 -1 -576 -17 -3 -9 10 -66 30 -128
21 -61 37 -115 36 -120 -1 -15 -79 217 -79 235 0 40 3 40 594 38 452 -2 570
-6 572 -16z m144 -3 c7 -11 9 -23 7 -26 -3 -2 -8 5 -12 16 -5 16 -15 21 -40
21 -18 0 -36 -6 -38 -12 -3 -8 -6 -6 -6 5 -1 27 74 24 89 -4z m99 -304 c0 -5
-16 35 -35 90 -19 54 -34 104 -33 110 0 5 16 -35 35 -90 19 -54 34 -104 33
-110z m-1230 -260 c0 -5 -18 42 -40 105 -21 63 -39 119 -38 125 0 5 18 -42 40
-105 21 -63 39 -119 38 -125z m1330 -50 c0 -5 -16 35 -35 90 -19 54 -34 104
-33 110 0 5 16 -35 35 -90 19 -54 34 -104 33 -110z m-1230 -260 c0 -5 -18 42
-40 105 -21 63 -39 119 -38 125 0 5 18 -42 40 -105 21 -63 39 -119 38 -125z
m1303 45 c15 -46 24 -80 19 -75 -10 11 -61 165 -60 180 1 12 5 2 41 -105z
m-42 -185 l0 -55 -590 0 -590 0 -29 28 c-17 15 -33 39 -37 55 l-6 27 626 0
626 0 0 -55z m600 34 c0 -12 -15 -36 -34 -55 l-34 -34 -243 2 -244 3 240 2
239 3 33 32 c61 59 61 59 -237 56 -149 -2 -270 0 -270 5 0 4 124 7 275 7 273
0 275 0 275 -21z"/>
<path d="M611 956 l-22 -24 27 -21 c27 -21 28 -21 608 -19 l581 3 3 43 3 42
-589 0 -589 0 -22 -24z"/>
</g>
</svg>
